<?xml version="1.0" encoding="UTF-8"?>
<svg id="Layer_1" data-name="Layer 1" xmlns="http://www.w3.org/2000/svg" viewBox="0 0 752.97 146.86">
  <defs>
    <style>
      .cls-1 {
        fill: none;
        fill-rule: evenodd;
        stroke: #fff;
        stroke-miterlimit: 10;
        stroke-width: 1.37px;
      }

      .cls-2 {
        fill: #fff;
        stroke-width: 0px;
      }
    </style>
  </defs>
  <path class="cls-1" d="m579.62,50.8h-4.12v-3.27h4.12v3.27Zm66.21,0h4.12v-3.27h-4.12v3.27Zm106.16,81.85v-9.36h-3.92v9.36h-.65v-9.36h-17.31v9.36h-.6v-24.6h-2.58v24.6h-.63v-24.6h-5.3v24.6h-.63v-24.6h-5.41v24.6h-.62v-29.08h-14.64v29.08h-.62v-8.56h-1.96v2.32h-8.85v-2.32h-1.96v8.56h-.62v-25.69h-17.94v25.69h-17.78v-4.55h-4.12v4.55h-.58v-4.55h-11.19v4.55h-.2l-13.55-4.55h-15.18l-13.55,4.55h-.2v-4.55h-11.19v4.55h-.58v-4.55h-4.12v4.55m37.21-31.42h6.4v12.32h-1.72c-.25-.13-.49-.25-.76-.33-.29-.13-.58-.22-.89-.31-.45-.13-.96-.24-1.47-.31-.51-.07-1.03-.11-1.56-.11s-1.03.05-1.54.11c-.51.07-1.03.18-1.49.31-.29.09-.58.18-.87.31-.27.09-.51.2-.76.33h-1.72v-12.32h6.37Zm0-.56h6.4v-3.65h-12.77v3.65h6.37Zm0-4.21h6.4v-22.75h-12.77v22.75h6.37Zm0-13.95c2.07,0,3.74,1.67,3.74,3.72v5.68h-7.46v-5.68c0-2.05,1.67-3.72,3.72-3.72Zm0-13.04h6.4v3.65h-12.77v-3.65h6.37Zm0-18.09h6.4v17.54h-12.77v-17.54h6.37Zm0,8.71c1.2,0,2.16-.96,2.16-2.14s-.96-2.16-2.16-2.16-2.14.96-2.14,2.16.96,2.14,2.14,2.14Zm0,53.1c.51,0,1,.04,1.47.11.47.07.93.16,1.38.29.29.07.56.16.8.27.27.11.51.22.76.36l.09.04h1.9v13.26h-2.65v-10.61h-.04c-.76-.65-2.14-1.07-3.7-1.07s-2.92.42-3.68,1.07h-.05v10.61h-2.65v-13.26h1.89l.09-.04c.22-.13.49-.25.74-.36.27-.11.53-.2.83-.27.45-.13.91-.22,1.38-.29.47-.07.96-.11,1.45-.11Zm0-71.04c.56,0,1,.45,1,1,0,.49-.33.89-.8.98v.53h.8v1.83c.47.31,1,.6,1.54.87,1,.51,1.98.94,2.96,1.36,1.4.6,2.81,1.2,4.26,2.07h-19.5c1.45-.87,2.85-1.47,4.26-2.07.98-.42,1.96-.85,2.96-1.36.54-.27,1.05-.56,1.54-.87v-1.83h.8v-.53c-.47-.09-.8-.49-.8-.98,0-.56.44-1,.98-1Zm6.95,26.76h2.56v-15.44l1.23-2.09h-3.79v17.54Zm0,4.21h2.56v-3.65h-2.56v3.65Zm0,23.33h2.56v-22.75h-2.56v22.75Zm0,4.21h2.56v-3.65h-2.56v3.65Zm2.56,26.85v-26.29h-2.56v26.29h2.56Zm.56-58.6h5.82v-9.49c-.18.49-.36.91-.6,1.38-.31.63-.69,1.4-1.4,1.67-.25.07-.42.09-.42.07.2-.09.4-.22.56-.38.33-.31.54-.78.54-1.27s-.2-.96-.54-1.29c-.53-.53-1.31-.67-1.98-.33-.09.02-.18.09-.25.13-.04-.07-.25-.29-.29-.36-.56-.65-1.05-1.54-1.43-2.41v12.28Zm0,4.21h5.82v-3.66h-5.82v3.66Zm0,23.33h5.82v-22.75h-5.82v22.75Zm0,4.21h5.82v-3.65h-5.82v3.65Zm5.82.56h-5.82v26.29h5.82v-26.29Zm4.88,30.62v-3.74h-4.3v2.36l4.15,1.4.16.05v-.07Zm-4.88-3.74h-6.53l6.53,2.18v-2.18Zm4.88-26.87h-4.3v26.29h4.3v-26.29Zm0-4.21h-4.3v3.65h4.3v-3.65Zm0-23.31h-4.3v22.75h4.3v-22.75Zm0-4.23h-4.3v3.65h4.3v-3.65h0Zm0-18.09h-4.3v17.54h4.3v-17.54Zm0-3.86h-4.3v3.28h4.3v-3.28h0Zm.58,0v3.28h11.19v-3.28h-11.19Zm0,3.86v17.54h11.19v-17.54h-11.19Zm0,18.09v3.65h11.19v-3.66h-11.19Zm0,4.23v22.75h11.19v-22.75h-11.19Zm0,23.31v3.65h11.19v-3.65h-11.19Zm0,4.21v26.29h11.19v-26.29h-11.19Zm15.89.18v-.18h-4.12v26.29h4.12v-26.11Zm-4.12-.74h4.12v-3.65h-4.12v3.65Zm4.12-4.21v-22.75h-4.12v22.75h4.12Zm-4.12-23.33h4.12v-3.65h-4.12v3.65Zm4.12-4.21v-17.54h-4.12v17.54h4.12Zm-24.29,14.06c-.82,0-1.51.69-1.51,1.51v7.4h3.03v-7.4c0-.82-.67-1.51-1.52-1.51Zm0,28.61c-.82,0-1.51.67-1.51,1.52v7.37h3.03v-7.37c0-.85-.67-1.52-1.52-1.52Zm13.91-1.11c-.78,0-1.49.31-2.01.85-.51.51-.85,1.23-.85,2.01v7.04h5.68v-7.04c0-.78-.31-1.49-.83-2.01-.51-.53-1.23-.85-2.01-.85Zm0,.89c.53,0,1.03.22,1.38.58s.58.85.58,1.38v6.15h-3.92v-6.15c0-.53.22-1.03.58-1.38.36-.36.85-.58,1.38-.58Zm0-29.68c-.78,0-1.49.31-2.01.83-.51.53-.85,1.23-.85,2.03v7.04h5.68v-7.04c0-.8-.31-1.49-.83-2.03-.51-.51-1.23-.83-2.01-.83Zm0,.89c.53,0,1.03.22,1.38.58.36.33.58.83.58,1.38v6.15h-3.92v-6.15c0-.56.22-1.05.58-1.38.36-.36.85-.58,1.38-.58Zm0-27.3c-1.31,0-2.41,1.07-2.41,2.38v6.6h4.81v-6.6c0-1.31-1.09-2.38-2.41-2.38Zm.18-21.19h-.36v1.83h-1.85v.38h1.85v3.61c-.25.09-.42.31-.42.58v1.09l-4.52,2.54-5.13,2.85h20.5l-5.13-2.85-4.52-2.54v-1.09c0-.27-.18-.49-.42-.58v-3.61h1.85v-.38h-1.85v-1.83h0Zm-33.96,34.83h-2.56v-15.44l-1.23-2.09h3.79v17.54Zm0,4.21h-2.56v-3.65h2.56v3.65Zm0,23.33h-2.56v-22.75h2.56v22.75Zm0,4.21h-2.56v-3.65h2.56v3.65Zm-2.56,26.85v-26.29h2.56v26.29h-2.56Zm-.58-58.6h-5.79v-9.49c.18.49.36.91.6,1.38.31.63.69,1.4,1.4,1.67.25.07.42.09.42.07-.2-.09-.4-.22-.56-.38-.33-.31-.54-.78-.54-1.27s.2-.96.54-1.29c.53-.53,1.31-.67,1.98-.33.09.02.18.09.25.13.04-.07.25-.29.29-.36.56-.65,1.05-1.54,1.4-2.41v12.28h0Zm0,4.21h-5.79v-3.66h5.79v3.66Zm0,23.33h-5.79v-22.75h5.79v22.75Zm0,4.21h-5.79v-3.65h5.79v3.65Zm-5.79.56h5.79v26.29h-5.79v-26.29Zm-4.88,30.62v-3.74h4.3v2.36l-4.15,1.4-.15.05v-.07Zm4.88-3.74h6.53l-6.53,2.18v-2.18Zm-4.88-26.87h4.3v26.29h-4.3v-26.29Zm0-4.21h4.3v3.65h-4.3v-3.65Zm0-23.31h4.3v22.75h-4.3v-22.75Zm0-4.23h4.3v3.65h-4.3v-3.65Zm0-18.09h4.3v17.54h-4.3v-17.54Zm0-3.86h4.3v3.28h-4.3v-3.28Zm-.58,0v3.28h-11.19v-3.28h11.19Zm0,3.86v17.54h-11.19v-17.54h11.19Zm0,18.09v3.65h-11.19v-3.66h11.19Zm0,4.23v22.75h-11.19v-22.75h11.19Zm0,23.31v3.65h-11.19v-3.65h11.19Zm0,4.21v26.29h-11.19v-26.29h11.19Zm-15.89.18v-.18h4.12v26.29h-4.12v-26.11Zm4.12-.74h-4.12v-3.65h4.12v3.65Zm-4.12-4.21v-22.75h4.12v22.75h-4.12Zm4.12-23.33h-4.12v-3.65h4.12v3.65Zm-4.12-4.21v-17.54h4.12v17.54h-4.12Zm24.29,14.06c.83,0,1.52.69,1.52,1.51v7.4h-3.03v-7.4c0-.82.67-1.51,1.51-1.51Zm0,28.61c.83,0,1.52.67,1.52,1.52v7.37h-3.03v-7.37c0-.85.67-1.52,1.51-1.52Zm-13.9-1.11c.78,0,1.49.31,2.01.85.51.51.85,1.23.85,2.01v7.04h-5.7v-7.04c0-.78.33-1.49.85-2.01.51-.53,1.23-.85,2.01-.85Zm0,.89c-.53,0-1.03.22-1.38.58-.36.36-.58.85-.58,1.38v6.15h3.92v-6.15c0-.53-.22-1.03-.58-1.38-.36-.36-.85-.58-1.38-.58Zm0-29.68c.78,0,1.49.31,2.01.83.51.53.85,1.23.85,2.03v7.04h-5.7v-7.04c0-.8.33-1.49.85-2.03.51-.51,1.23-.83,2.01-.83Zm0,.89c-.53,0-1.03.22-1.38.58-.36.33-.58.83-.58,1.38v6.15h3.92v-6.15c0-.56-.22-1.05-.58-1.38-.36-.36-.85-.58-1.38-.58Zm0-27.3c1.32,0,2.41,1.07,2.41,2.38v6.6h-4.81v-6.6c0-1.31,1.09-2.38,2.41-2.38Zm-.18-21.19h.36v1.83h1.85v.38h-1.85v3.61c.25.09.42.31.42.58v1.09l4.52,2.54,5.13,2.85h-20.5l5.13-2.85,4.52-2.54v-1.09c0-.27.18-.49.42-.58v-3.61h-1.85v-.38h1.85v-1.83h0Zm100.59,55.26h19.7l-3.19,6.24-3.32,6.51-.73,1.47h.31v2.79h-12.77v-17h0Zm34.41-37.3l.47,8.42.38,6.75-.58-1.85-.27-.87-.25.87-.58,1.85.38-6.75.45-8.42Zm-1.23,17.22h.07l.56-1.83.6-2.01.63,2.01.56,1.83h.07v3.68h17.2l7.91,15.78h-5.48v-1.81h.42l-.18-.42-.56-1.32-.56-1.31-.27-.69-.29.69-.56,1.31-.54,1.32-.18.42h.4v1.81h-11.32v-1.81h.4l-.18-.42-.53-1.32-.56-1.31-.29-.69-.27.69-.56,1.31-.56,1.32-.15.42h.4v1.81h-10.36v-1.81h.4l-.18-.42-.56-1.32-.53-1.31-.29-.69-.29.69-.53,1.31-.56,1.32-.18.42h.42v1.81h-5.33l-.13-.29-.56-1.07-.53,1.07-.16.29h-1.16v-1.8h.42l-.18-.42-.56-1.31-.56-1.31-.27-.69-.29.69-.56,1.31-.53,1.31-.18.42h.4v1.8h-10.43v-1.8h.4l-.18-.42-.53-1.31-.56-1.31-.29-.69-.27.69-.56,1.31-.56,1.31-.18.42h.42v1.8h-3.83v-15.78h33.18v-3.68Zm2.83,29.55v-.02h.62v.02h.16l3.23,4.15v-7.46c0-1.63.56-2.49,1.96-3.25,1.43.76,1.98,1.63,1.98,3.25v11.92h.02v.62h-.18v14.62h17.31v-33.31h-39.4l.31.62c1.27,2.5,2.14,4.21,4.5,8.82h1.09v-2.88c0-1.69.6-2.63,2.07-3.41,1.49.78,2.07,1.72,2.07,3.41v2.88h1c1.07,0,2.14,0,3.23.02Zm-54.57-41.18h5.1v8.18h-5.1v-8.18Zm45.41,41.76h8.96l3.41,8.02h-10.56v-3.86h.31l-.47-.89-1.65-3.28Zm9.63.02l6.24,8h-2.81l-3.43-8Zm-5.06,14.84c-1.11.58-1.56,1.29-1.56,2.59v9.27h3.14v-9.27c0-1.29-.45-2.01-1.58-2.59Zm0,.63c.18,0,.31.13.31.31v.02h.04c.16,0,.29.16.29.31,0,.18-.13.31-.29.31h-.04v.02c0,.18-.13.31-.31.31-.16,0-.29-.13-.29-.31v-.02h-.04c-.16,0-.29-.13-.29-.31,0-.16.13-.31.29-.31h.04v-.02c0-.18.13-.31.29-.31Zm-.69,1.38c-.4.2-.56.45-.56.91v8.62h1.11v-8.62c0-.47-.15-.71-.56-.91Zm1.4,0c-.4.2-.56.45-.56.91v8.62h1.11v-8.62c0-.47-.16-.71-.56-.91Zm5.21-2.01c-1.14.58-1.58,1.29-1.58,2.59v9.27h3.16v-9.27c0-1.29-.47-2.01-1.58-2.59Zm0,.63c.16,0,.31.13.31.31v.02h.02c.18,0,.31.16.31.31,0,.18-.13.31-.31.31h-.02v.02c0,.18-.15.31-.31.31-.18,0-.31-.13-.31-.31v-.02h-.02c-.18,0-.31-.13-.31-.31,0-.16.13-.31.31-.31h.02v-.02c0-.18.13-.31.31-.31Zm-.71,1.38c-.4.2-.56.45-.56.91v8.62h1.14v-8.62c0-.47-.18-.71-.58-.91Zm1.43,0c-.4.2-.58.45-.58.91v8.62h1.14v-8.62c0-.47-.16-.71-.56-.91Zm-12.5,16.38v-8.38c0-1.16-.96-2.12-2.12-2.12s-2.14.96-2.14,2.12v8.38h4.26Zm-5.46,0v-8.38c0-1.16-.96-2.12-2.12-2.12s-2.12.96-2.12,2.12v8.38h4.23Zm.6-43.92l7.26,14.22h-14.51l3.61-7.06,3.63-7.15Zm2.27,19.65c-.76.42-1.07.89-1.07,1.78v6.33h2.14v-6.33c0-.89-.29-1.36-1.07-1.78Zm0,.45c.11,0,.2.09.2.2v.02h.02c.13,0,.22.09.22.22,0,.11-.09.2-.22.2h-.02v.02c0,.11-.09.2-.2.2s-.2-.09-.2-.2v-.02h-.02c-.11,0-.22-.09-.22-.2,0-.13.11-.22.22-.22h.02v-.02c0-.11.09-.2.2-.2Zm-.49.94c-.27.13-.38.31-.38.62v5.88h.78v-5.88c0-.31-.11-.49-.4-.62Zm.98,0c-.29.13-.4.31-.4.62v5.88h.78v-5.88c0-.31-.11-.49-.38-.62Zm-5.04-1.38c-.76.42-1.07.89-1.07,1.78v6.33h2.16v-6.33c0-.89-.31-1.36-1.09-1.78Zm0,.45c.13,0,.22.09.22.2v.02h.02c.11,0,.2.09.2.22,0,.11-.09.2-.2.2h-.02v.02c0,.11-.09.2-.22.2-.11,0-.2-.09-.2-.2v-.02h-.02c-.11,0-.2-.09-.2-.2,0-.13.09-.22.2-.22h.02v-.02c0-.11.09-.2.2-.2Zm-.47.94c-.27.13-.38.31-.38.62v5.88h.76v-5.88c0-.31-.11-.49-.38-.62Zm.96,0c-.27.13-.38.31-.38.62v5.88h.76v-5.88c0-.31-.11-.49-.38-.62Zm-6.15.2h-12.77v13.5h2.59v2.32h7.6v-2.32h2.58v-13.5h0Zm-6.37,2.12c-1.63.85-2.25,1.85-2.25,3.7v8.69h4.48v-8.69c0-1.85-.62-2.85-2.23-3.7Zm-1.96,12.06v-8.38c0-.47.16-.71.56-.91.4.2.56.45.56.91v8.38h-1.12Zm1.4,0v-8.38c0-.47.15-.71.56-.91.38.2.53.45.53.91v8.38h-1.09Zm1.38,0v-8.38c0-.47.16-.71.56-.91.4.2.56.45.56.91v8.38h-1.11Zm-1.56-10.43c.16,0,.27.13.27.27v.02h.02c.13,0,.25.11.25.25,0,.15-.11.27-.25.27h-.02v.02c0,.13-.11.27-.27.27-.13,0-.25-.13-.25-.27v-.02h-.02c-.16,0-.27-.11-.27-.27,0-.13.11-.25.27-.25h.02v-.02c0-.13.11-.27.25-.27Zm1.45,0c.13,0,.24.13.24.27v.02h.02c.16,0,.27.11.27.25,0,.15-.11.27-.27.27h-.02v.02c0,.13-.11.27-.24.27-.16,0-.27-.13-.27-.27v-.02h-.02c-.13,0-.25-.11-.25-.27,0-.13.11-.25.25-.25h.02v-.02c0-.13.11-.27.27-.27Zm-.71-1.07c.13,0,.25.11.25.25v.02h.02c.13,0,.27.13.27.27s-.13.25-.27.25h-.02v.05c0,.13-.11.25-.25.25-.16,0-.27-.11-.27-.25v-.05h-.02c-.13,0-.27-.11-.27-.25s.13-.27.27-.27h.02v-.02c0-.13.11-.25.27-.25Zm6.37-5.68h-12.77v2.38h12.77v-2.38Zm-22.35-103.29l4.35,22.84,2.9,15.31-.13,1.16-.73,6.31-.02.07h-12.72v-.07l-.74-6.31-.13-1.16,2.9-15.31,4.35-22.84Zm-8.54,33.07l.74,6.31.73,6.31h-2.94l.74-6.31.73-6.31Zm17.07,0l.74,6.31.73,6.31h-2.94l.73-6.31.73-6.31Zm-16.62,13.24h16.18v3.47h-4.79v-1.18h-1.16v1.18h-1.56v-1.18h-1.16v1.18h-1.56v-1.18h-1.16v1.18h-4.79v-3.47Zm18.27,4.1v2.94h-20.37v-2.94h20.37Zm-10.18,58.03c-.22.11-.31.25-.31.51v2.23h.62v-2.23c0-.27-.09-.4-.31-.51Zm-2.39-38.97c-.56.29-.78.65-.78,1.29v8.04h1.58v-8.04c0-.65-.25-1-.8-1.29Zm2.39,0c-.56.29-.78.65-.78,1.29v8.04h1.56v-8.04c0-.65-.22-1-.78-1.29Zm2.39,0c-.58.29-.8.65-.8,1.29v8.04h1.58v-8.04c0-.65-.22-1-.78-1.29Zm-4.46,16.71c-.47.27-.67.56-.67,1.11v2.52h1.36v-2.52c0-.56-.2-.85-.69-1.11Zm2.07,0c-.49.27-.67.56-.67,1.11v2.52h1.34v-2.52c0-.56-.18-.85-.67-1.11Zm2.05,0c-.47.27-.67.56-.67,1.11v2.52h1.36v-2.52c0-.56-.2-.85-.69-1.11Zm-2.85,9.8c-.33.18-.47.38-.47.76v3.54h.91v-3.54c0-.38-.11-.58-.45-.76Zm1.61,0c-.33.18-.47.38-.47.76v3.54h.91v-3.54c0-.38-.11-.58-.45-.76Zm-4.06-42h6.51v8.18h-6.51v-8.18Zm7.13,0h5.08v8.18h-5.08v-8.18Zm5.08,8.8v19.99h-17.94v-19.99h17.94Zm0,20.61v8.42h-17.94v-8.42h17.94Zm0,9.05v10.25h-17.94v-10.25h17.94Zm-7.18,36.54v-6.66c0-1.47-.51-2.25-1.78-2.94-1.27.69-1.78,1.47-1.78,2.94v6.66h3.57Zm35.12-43.92h1.07v-2.43h.11l-.38-.89-.27-.65-.27.65-.38.89h.11v2.43Zm12.66,0h1.09v-2.43h.09l-.36-.89-.29-.65-.27.65-.36.89h.09v2.43Zm13.64,0h1.07v-2.43h.11l-.38-.89-.27-.65-.27.65-.38.89h.11v2.43Zm-49.18,0h1.07v-2.43h.11l-.38-.89-.27-.65-.27.65-.38.89h.11v2.43Zm12.75,0h1.07v-2.43h.11l-.38-.89-.27-.65-.27.65-.38.89h.11v2.43Zm48.13,0l-11.77-15.78,7.93,15.78h3.83Zm-60.26,4.17c-2.07,1.09-2.9,2.39-2.9,4.77v5.64h5.79v-5.64c0-2.38-.83-3.68-2.9-4.77Zm0,.49c.13,0,.22.11.22.25v.02h.04c.11,0,.22.11.22.25s-.11.22-.22.22h-.04v.04c0,.11-.09.22-.22.22s-.25-.11-.25-.22v-.04h-.02c-.13,0-.22-.09-.22-.22s.09-.25.22-.25h.02v-.02c0-.13.11-.25.25-.25Zm.71,1.16c.13,0,.25.09.25.22v.02h.02c.13,0,.22.11.22.25s-.09.25-.22.25h-.02v.02c0,.13-.11.22-.25.22s-.22-.09-.22-.22v-.02h-.04c-.11,0-.22-.11-.22-.25s.11-.25.22-.25h.04v-.02c0-.13.09-.22.22-.22Zm-1.43,0c.13,0,.22.09.22.22v.02h.05c.11,0,.22.11.22.25s-.11.25-.22.25h-.05v.02c0,.13-.09.22-.22.22s-.25-.09-.25-.22v-.02h-.02c-.13,0-.22-.11-.22-.25s.09-.25.22-.25h.02v-.02c0-.13.11-.22.25-.22Zm.71,1.16c.13,0,.22.09.22.22v.02h.04c.11,0,.22.11.22.25s-.11.22-.22.22h-.04v.05c0,.11-.09.22-.22.22s-.25-.11-.25-.22v-.05h-.02c-.13,0-.22-.09-.22-.22s.09-.25.22-.25h.02v-.02c0-.13.11-.22.25-.22Zm1.4,0c.13,0,.25.09.25.22v.02h.02c.13,0,.22.11.22.25s-.09.22-.22.22h-.02v.05c0,.11-.11.22-.25.22s-.22-.11-.22-.22v-.05h-.05c-.11,0-.22-.09-.22-.22s.11-.25.22-.25h.05v-.02c0-.13.09-.22.22-.22Zm-2.81,0c.13,0,.22.09.22.22v.02h.04c.11,0,.22.11.22.25s-.11.22-.22.22h-.04v.05c0,.11-.09.22-.22.22s-.25-.11-.25-.22v-.05h-.02c-.13,0-.22-.09-.22-.22s.09-.25.22-.25h.02v-.02c0-.13.11-.22.25-.22Zm-.65,1.11c-.36.2-.51.42-.51.87v5.28h1.05v-5.28c0-.45-.15-.67-.53-.87Zm1.36,0c-.38.2-.51.42-.51.87v5.28h1.05v-5.28c0-.45-.15-.67-.53-.87Zm1.38,0c-.38.2-.53.42-.53.87v5.28h1.05v-5.28c0-.45-.16-.67-.51-.87Zm1.34,0c-.36.2-.51.42-.51.87v5.28h1.05v-5.28c0-.45-.16-.67-.54-.87Zm21.97-2.79c.11,0,.22.11.22.22v.04h.02c.13,0,.25.09.25.22s-.11.25-.25.25h-.02v.02c0,.13-.11.22-.22.22-.13,0-.25-.09-.25-.22v-.02h-.02c-.13,0-.25-.11-.25-.25s.11-.22.25-.22h.02v-.04c0-.11.11-.22.25-.22Zm1.31,0c.11,0,.22.11.22.22v.04h.02c.13,0,.24.09.24.22s-.11.25-.24.25h-.02v.02c0,.13-.11.22-.22.22-.13,0-.25-.09-.25-.22v-.02h-.02c-.13,0-.22-.11-.22-.25s.09-.22.22-.22h.02v-.04c0-.11.11-.22.25-.22Zm-.67-1c.13,0,.25.11.25.25v.02h.02c.13,0,.22.11.22.22,0,.13-.09.25-.22.25h-.02v.02c0,.13-.11.25-.25.25s-.22-.11-.22-.25v-.02h-.05c-.11,0-.22-.11-.22-.25,0-.11.11-.22.22-.22h.05v-.02c0-.14.09-.25.22-.25Zm0,2.05c.36.18.51.4.51.82v2.9h-1.03v-2.9c0-.42.16-.65.51-.83Zm-.78,3.72v-2.9c0-.42-.13-.65-.49-.82-.38.18-.51.4-.51.82v2.9h1Zm2.07-3.72c-.38.18-.51.4-.51.82v2.9h1v-2.9c0-.42-.13-.65-.49-.83Zm24.22-2.83c-1.4.76-1.98,1.63-1.98,3.25v26.21h3.97v-26.21c0-1.63-.58-2.49-1.98-3.25Zm-14.93,11.05v-7.82c0-.4.13-.6.49-.78.33.18.47.38.47.78v9.07l-.96-1.25Zm1.23,1.58v-9.4c0-.4.13-.6.47-.78.36.18.49.38.49.78v10.63l-.96-1.23Zm1.23,1.54v-10.94c0-.4.13-.6.47-.78.36.18.49.38.49.78v11.94h-.2l-.29-.38-.47-.6v-.02Zm-1.38-12.72c.13,0,.22.11.22.22v.02h.02c.13,0,.22.11.22.22,0,.13-.09.22-.22.22h-.02v.02c0,.13-.09.22-.22.22-.11,0-.22-.09-.22-.22v-.02h-.02c-.11,0-.22-.09-.22-.22,0-.11.11-.22.22-.22h.02v-.02c0-.11.11-.22.22-.22Zm1.27,0c.11,0,.22.11.22.22v.02h.02c.11,0,.22.11.22.22,0,.13-.11.22-.22.22h-.02v.02c0,.13-.11.22-.22.22-.13,0-.22-.09-.22-.22v-.02h-.04c-.11,0-.22-.09-.22-.22,0-.11.11-.22.22-.22h.04v-.02c0-.11.09-.22.22-.22Zm-.65-.96c.13,0,.22.11.22.22v.04h.02c.13,0,.24.09.24.22,0,.11-.11.22-.24.22h-.02v.02c0,.11-.09.22-.22.22-.11,0-.22-.11-.22-.22v-.02h-.02c-.11,0-.22-.11-.22-.22,0-.13.11-.22.22-.22h.02v-.04c0-.11.11-.22.22-.22Zm11.54,13.68v-10.94c0-.4.13-.6.47-.78.36.18.49.38.49.78v25.96h-.96v-15.02Zm1.2,0v-10.94c0-.4.15-.6.49-.78.33.18.49.38.49.78v25.96h-.98v-15.02h0Zm1.22,0v-10.94c0-.4.13-.6.49-.78.33.18.47.38.47.78v25.96h-.96v-15.02Zm-1.36-12.72c.11,0,.22.11.22.22v.02h.02c.11,0,.22.11.22.22,0,.13-.11.22-.22.22h-.02v.02c0,.13-.11.22-.22.22-.13,0-.22-.09-.22-.22v-.02h-.02c-.13,0-.22-.09-.22-.22,0-.11.09-.22.22-.22h.02v-.02c0-.11.09-.22.22-.22Zm1.25,0c.13,0,.22.11.22.22v.02h.02c.13,0,.22.11.22.22,0,.13-.09.22-.22.22h-.02v.02c0,.13-.09.22-.22.22-.11,0-.22-.09-.22-.22v-.02h-.02c-.11,0-.22-.09-.22-.22,0-.11.11-.22.22-.22h.02v-.02c0-.11.11-.22.22-.22Zm-.62-.96c.11,0,.22.11.22.22v.04h.02c.13,0,.22.09.22.22,0,.11-.09.22-.22.22h-.02v.02c0,.11-.11.22-.22.22-.13,0-.22-.11-.22-.22v-.02h-.02c-.13,0-.22-.11-.22-.22,0-.13.09-.22.22-.22h.02v-.04c0-.11.09-.22.22-.22Zm6.55-3.39h3.92v33.31h-3.92v-33.31Z"/>
  <g>
    <path class="cls-2" d="m62.22,26.64v.69c0,2.03-.95,3.93-2.56,5.16l-31.9,24.33c-5.14,3.92-5.1,11.68.08,15.55l31.77,23.72c1.64,1.23,2.61,3.15,2.61,5.2v.65c0,5.31-6.03,8.37-10.32,5.25L3.67,72.04C1.36,70.36,0,67.68,0,64.83h0c0-3.08,1.46-5.98,3.93-7.82L51.86,21.42c4.28-3.18,10.36-.12,10.36,5.21Z"/>
    <path class="cls-2" d="m78.84,60.15l47.75,35.45c2.47,1.83,3.92,4.72,3.92,7.79h0c0,2.84-1.36,5.51-3.66,7.19l-48.06,35.02c-4.28,3.12-10.28.06-10.28-5.23v-.65c0-2.04.96-3.96,2.6-5.18l31.65-23.63c5.16-3.86,5.2-11.58.08-15.49l-31.78-24.24c-1.6-1.22-2.55-3.13-2.55-5.14v-.69c0-5.32,6.06-8.36,10.33-5.19Z"/>
    <rect class="cls-2" x="18.88" y="104.17" width="29.89" height="13.35" rx="6.68" ry="6.68" transform="translate(73.53 1.97) rotate(37)"/>
    <circle class="cls-2" cx="54.74" cy="126.61" r="7.37"/>
    <rect class="cls-2" x="81.92" y="46.98" width="29.89" height="13.35" rx="6.68" ry="6.68" transform="translate(141.93 154.8) rotate(-143)"/>
    <circle class="cls-2" cx="75.95" cy="37.89" r="7.37"/>
  </g>
  <g>
    <path class="cls-2" d="m173.93,54.73c0-11.96,8.53-20.77,20.06-20.77,5.58,0,10.6,1.98,13.99,5.95l-2.57,2.74c-3.12-3.38-6.94-4.84-11.31-4.84-9.24,0-16.18,7.23-16.18,16.92s6.94,16.92,16.18,16.92c4.37,0,8.2-1.46,11.31-4.9l2.57,2.74c-3.39,3.97-8.42,6.01-14.05,6.01-11.48,0-20.01-8.81-20.01-20.77Z"/>
    <path class="cls-2" d="m212.41,54.73c0-11.9,8.53-20.77,20.12-20.77s20.06,8.81,20.06,20.77-8.58,20.77-20.06,20.77-20.12-8.87-20.12-20.77Zm36.13,0c0-9.74-6.83-16.92-16.02-16.92s-16.12,7.17-16.12,16.92,6.89,16.92,16.12,16.92,16.02-7.17,16.02-16.92Z"/>
    <path class="cls-2" d="m301.4,34.32v40.83h-3.88v-32.67l-15.03,27.47h-1.91l-15.03-27.3v32.49h-3.88v-40.83h3.33l16.62,30.27,16.45-30.27h3.33Z"/>
    <path class="cls-2" d="m353.6,34.32v40.83h-3.88v-32.67l-15.03,27.47h-1.91l-15.03-27.3v32.49h-3.88v-40.83h3.33l16.62,30.27,16.45-30.27h3.33Z"/>
    <path class="cls-2" d="m365.73,57.71v-23.39h4.04v23.22c0,9.68,4.26,14.12,11.7,14.12s11.75-4.43,11.75-14.12v-23.22h3.94v23.39c0,11.72-5.9,17.79-15.69,17.79s-15.74-6.07-15.74-17.79Z"/>
    <path class="cls-2" d="m441.33,34.32v40.83h-3.33l-24.6-33.13v33.13h-4.04v-40.83h3.33l24.65,33.13v-33.13h3.99Z"/>
    <path class="cls-2" d="m453.79,34.32h4.04v40.83h-4.04v-40.83Z"/>
    <path class="cls-2" d="m477.73,38.05h-13.45v-3.73h30.94v3.73h-13.45v37.1h-4.04v-37.1Z"/>
    <path class="cls-2" d="m514.52,61.03v14.12h-3.99v-14.12l-15.31-26.72h4.32l13.12,22.92,13.12-22.92h4.04l-15.31,26.72Z"/>
    <path class="cls-2" d="m173.93,110.79c0-12.74,9.13-22.23,21.54-22.23s21.48,9.43,21.48,22.23-9.19,22.23-21.48,22.23-21.54-9.49-21.54-22.23Zm38.69,0c0-10.43-7.32-18.11-17.15-18.11s-17.27,7.68-17.27,18.11,7.37,18.11,17.27,18.11,17.15-7.68,17.15-18.11Z"/>
    <path class="cls-2" d="m259.5,88.93l-18.14,43.72h-4.27l-18.14-43.72h4.68l15.68,37.97,15.8-37.97h4.39Z"/>
    <path class="cls-2" d="m294.38,128.65v4h-28.97v-43.72h28.09v4h-23.76v15.55h21.19v3.93h-21.19v16.24h24.64Z"/>
    <path class="cls-2" d="m332.54,132.65l-9.36-14.05c-1.05.12-2.11.19-3.28.19h-11v13.87h-4.33v-43.72h15.33c10.42,0,16.74,5.62,16.74,14.99,0,6.87-3.39,11.68-9.36,13.74l10.01,14.99h-4.74Zm-.23-28.73c0-7-4.33-10.99-12.52-10.99h-10.89v21.92h10.89c8.19,0,12.52-4.06,12.52-10.93Z"/>
    <path class="cls-2" d="m358.58,110.79c0-12.8,9.13-22.23,21.48-22.23,5.97,0,11.35,2.12,14.98,6.37l-2.75,2.94c-3.34-3.62-7.43-5.18-12.11-5.18-9.89,0-17.32,7.74-17.32,18.11s7.43,18.11,17.32,18.11c4.68,0,8.78-1.56,12.11-5.25l2.75,2.94c-3.63,4.25-9.01,6.43-15.04,6.43-12.29,0-21.42-9.43-21.42-22.23Z"/>
    <path class="cls-2" d="m399.78,110.79c0-12.74,9.13-22.23,21.54-22.23s21.48,9.43,21.48,22.23-9.19,22.23-21.48,22.23-21.54-9.49-21.54-22.23Zm38.69,0c0-10.43-7.32-18.11-17.15-18.11s-17.27,7.68-17.27,18.11,7.37,18.11,17.27,18.11,17.15-7.68,17.15-18.11Z"/>
    <path class="cls-2" d="m452.51,88.93h16.68c13.11,0,21.95,8.99,21.95,21.86s-8.84,21.86-21.95,21.86h-16.68v-43.72Zm16.45,39.72c10.89,0,17.91-7.37,17.91-17.86s-7.02-17.86-17.91-17.86h-12.11v35.72h12.11Z"/>
    <path class="cls-2" d="m529.82,128.65v4h-28.97v-43.72h28.09v4h-23.76v15.55h21.19v3.93h-21.19v16.24h24.64Z"/>
  </g>
</svg>