<?xml version="1.0" encoding="UTF-8"?><svg id="Layer_2" xmlns="http://www.w3.org/2000/svg" viewBox="0 0 1162.46 1107.2"><defs><style>.cls-1,.cls-2,.cls-3,.cls-4,.cls-5,.cls-6,.cls-7{stroke-miterlimit:10;}.cls-1,.cls-2,.cls-4{fill:none;}.cls-1,.cls-2,.cls-5,.cls-6,.cls-7{stroke-width:3px;}.cls-1,.cls-6{stroke:#017cee;}.cls-2{stroke:#565c62;}.cls-8{fill:#017cee;}.cls-9,.cls-3,.cls-5,.cls-6,.cls-7{fill:#fffcfb;}.cls-10{fill:#e43921;}.cls-11{fill:#11e1ee;}.cls-3,.cls-4{stroke:#00ad46;stroke-width:4px;}.cls-5{stroke:#11e1ee;}.cls-7{stroke:#e43921;}</style></defs><g id="Capa_1"><path class="cls-4" d="m250.04,1012.37l234.65-9.26,50.32-475.79,67.2-280.42c-66.79,153.32-135.51,305.74-206.15,457.26-46.98,100.78-97.34,208.23-146.02,308.21"/><path class="cls-4" d="m484.69,1002.01l34.45.29-11.28-11.28c8.6-47.18,20.86-113.03,36.38-191.75,12.83-65.1,28.85-143.87,47.37-250.86,12.06-69.68,16.94-121.53,19.33-198.95,1.04-33.77-6.52-83.25-8.72-102.57"/><path class="cls-6" d="m288.25,1085.37c-36.29-21.38-64.86-43.36-86.58-61l-9.47-8.72c133.23-8.06,272.84-13.3,418.36-14.78,150.38-1.53,294.57,1.08,432,6.82l48.13,13.26,3.79,15.54c-1.59,1.07-3.95,2.66-6.82,4.55-7.75,5.09-16.09,10.93-35.41,21.01"/><path class="cls-3" d="m676.49,3.86c11.33,16.83,22.45,34,33.35,51.54,129.76,208.79,257.44,508.03,271.33,947.75l-62.65-8.97c-118.32-17.6-236.63-35.2-354.95-52.8-.03-8.33-.03-16.66,0-25.01.91-283.83,32.9-585.36,107.62-902.65l5.31-9.85Z"/><line class="cls-4" x1="535.01" y1="527.32" x2="584.38" y2="526"/><path class="cls-7" d="m671.45,924.84c-6.84,6.02-12.36,16.95-9.09,24.25,1.54,3.44,3.66,3.04,7.58,7.07,4.54,4.68,6.23,9.9,10.11,28.8,4.01,19.58,3.25,19.11,4.55,21.22,8.95,14.56,31.62,14.67,34.36,14.65,9.94-.08,27.97-3.3,32.84-14.65,2.68-6.26.9-13.89,2.53-14.15,1.41-.22,1.93,5.62,6.57,9.09,5.31,3.97,14.27,3.52,15.66.51,2.18-4.72-15.32-13.43-13.14-21.22,1.54-5.47,11-4.08,14.15-11.12,2.64-5.91-.39-15.06-5.56-17.18-6.66-2.73-12.33,8.07-20.21,6.06-7.18-1.83-6.27-11.76-15.66-22.74-8.78-10.26-20.11-13.89-24.25-15.16-3.83-1.17-26.14-8.01-40.42,4.55Z"/><path class="cls-10" d="m679.39,985.94c16.13,9.84,36.41,11.81,54.05,4.96,4.86-1.89,9.46-4.32,13.7-7.36,1.1-.78,1.62-2.18.9-3.42-.63-1.08-2.32-1.69-3.42-.9-14.19,10.16-32.37,13.38-49.14,8.44-4.78-1.41-9.31-3.45-13.57-6.04-2.75-1.68-5.27,2.64-2.52,4.32h0Z"/><path class="cls-10" d="m721.94,928.72c-1.93,10.86-3.92,22.32-.37,33.07,1.48,4.49,3.82,8.71,7.12,12.12,3.64,3.76,8.31,5.85,12.9,8.18,4.32,2.19,9.19,5.14,9.93,10.37.19,1.34,1.89,2.07,3.08,1.75,1.44-.4,1.93-1.73,1.75-3.08-.66-4.73-4.24-8.42-8.04-10.97-4.17-2.8-9.04-4.35-13.15-7.24-7.51-5.28-10.41-14.88-10.55-23.66-.1-6.47,1.03-12.86,2.16-19.2.24-1.33-.36-2.69-1.75-3.08-1.21-.33-2.84.41-3.08,1.75h0Z"/><ellipse class="cls-7" cx="691.66" cy="901.35" rx="18.19" ry="19.96"/><path class="cls-10" d="m674.01,896.66c13.98,4.61,29.05,5.37,43.43,2.26.73-.16,1.22-1.2.75-1.84-1.83-2.44-5.26-3.24-7.88-1.51-1.33.89-.08,3.05,1.26,2.16s3.41-.78,4.46.61l.75-1.84c-13.95,3.02-28.55,2.21-42.1-2.26-1.53-.5-2.19,1.91-.66,2.41h0Z"/><path class="cls-10" d="m743.5,981.37c2.72,1.07,5.72.27,7.99-1.43,2.53-1.9,3.97-4.72,4.53-7.8.59-3.29.58-6.98.06-10.29-.23-1.47-.87-2.91-2.24-3.64s-2.88-.58-3.93.48c-.4.41-.46,1.02-.2,1.51,3.28,6.16,2.46,14.2-2.06,19.54-1.03,1.22.73,3,1.77,1.77,5.27-6.23,6.29-15.35,2.45-22.57l-.2,1.51c.77-.79,1.64.59,1.81,1.21.34,1.18.29,2.51.34,3.73.11,2.5.12,5.05-.55,7.48-1.06,3.82-4.87,7.75-9.13,6.08-1.5-.59-2.15,1.83-.66,2.41h0Z"/><path class="cls-10" d="m750.71,959.32c.85,1.41,1.7,2.83,2.55,4.24l1.71-1.71c-3.53-1.78-6.33-4.86-7.67-8.5-.23-.63-.85-1.06-1.54-.87-.61.17-1.11.9-.87,1.54,1.58,4.29,4.72,7.93,8.81,9.99,1.07.54,2.39-.58,1.71-1.71-.85-1.41-1.7-2.83-2.55-4.24s-2.99-.12-2.16,1.26h0Z"/><path class="cls-10" d="m749.05,981.1c4.47,1.07,7.19,6.24,5.73,10.49-.22.64.25,1.37.87,1.54.69.19,1.32-.23,1.54-.87,1.9-5.55-1.79-12.2-7.48-13.56-1.56-.38-2.23,2.03-.66,2.41h0Z"/><path class="cls-10" d="m756.47,990.03c-.35-3.63-1.85-7.01-4.37-9.67l-1.77,1.77c3.17,3.15,5.01,7.46,5.09,11.93.03,1.61,2.53,1.61,2.5,0-.09-5.12-2.19-10.09-5.82-13.7-1.14-1.14-2.88.6-1.77,1.77,2.04,2.14,3.35,4.95,3.64,7.9.06.67.53,1.25,1.25,1.25.63,0,1.31-.57,1.25-1.25h0Z"/><path class="cls-10" d="m754.27,973.3c5.84.72,12.23,1.43,17.68-1.36,4.32-2.22,7.86-6.79,7.3-11.84-.17-1.58-2.68-1.6-2.5,0,.49,4.47-2.79,8.26-6.7,9.98-4.9,2.16-10.65,1.35-15.78.71-1.59-.2-1.58,2.31,0,2.5h0Z"/><path class="cls-10" d="m751.6,981.04c8.02-1.33,15.73-4.2,22.68-8.41,1.37-.83.12-3-1.26-2.16-6.78,4.11-14.26,6.86-22.08,8.16-1.58.26-.91,2.67.66,2.41h0Z"/><path class="cls-10" d="m756.71,978.71c1.63-.53,3.26-1.06,4.89-1.59.64-.21,1.06-.87.87-1.54-.2-.71-.87-.98-1.54-.87-2.19.34-4.38.68-6.58,1.02l.96.13c.16.11-.12-.18,0,.02-.02-.04-.15-.33-.08-.12-.01-.03-.07-.33-.05-.18.02.12,0-.21,0-.26,0-.12-.03.11.02-.1.03-.12.07-.25.12-.37-.05.11.23-.38.24-.38.28-.36.55-.51,1.01-.61.65-.14,1.33-.05,1.97.1,2.7.61,5.8,2.19,8.36.28.54-.4.82-1.08.45-1.71-.31-.53-1.17-.85-1.71-.45-1.2.89-2.71.56-4.04.17-1.85-.55-3.74-1.25-5.7-.8-1.47.34-2.61,1.5-3.05,2.92-.2.65-.24,1.41-.03,2.06.24.74.86,1.63,1.69,1.74.58.08,1.28-.14,1.86-.23s1.13-.18,1.7-.26c1.17-.18,2.34-.36,3.52-.55l-.66-2.41c-1.63.53-3.26,1.06-4.89,1.59-1.52.5-.87,2.91.66,2.41h0Z"/><path class="cls-10" d="m774.52,971.56c1.61,0,1.61-2.5,0-2.5s-1.61,2.5,0,2.5h0Z"/><path class="cls-10" d="m755.83,975.18c2.53-.16,5.05-.32,7.58-.47.65-.04,1.28-.55,1.25-1.25-.03-.64-.55-1.29-1.25-1.25-2.53.16-5.05.32-7.58.47-.65.04-1.28.55-1.25,1.25.03.64.55,1.29,1.25,1.25h0Z"/><path class="cls-10" d="m755.32,976.63c2.86-.34,5.73-.68,8.59-1.01.67-.08,1.25-.52,1.25-1.25,0-.61-.58-1.33-1.25-1.25-2.86.34-5.73.68-8.59,1.01-.67.08-1.25.52-1.25,1.25,0,.61.58,1.33,1.25,1.25h0Z"/><path class="cls-10" d="m754.14,983.16c2.88-.58,6.11.22,8.4,2.17.51.44,1.26.5,1.77,0,.45-.45.52-1.33,0-1.77-3-2.55-6.97-3.58-10.83-2.81-.66.13-1.04.92-.87,1.54.19.69.87,1.01,1.54.87h0Z"/><path class="cls-10" d="m757.85,981.16l3.27-.03-.33-2.46c-2,.35-3.99.71-5.99,1.06-.61.11-.97.81-.9,1.37.08.63.6,1.05,1.23,1.08,2.61.12,5.28-.67,7.38-2.24.52-.39.84-1.1.45-1.71-.33-.52-1.15-.87-1.71-.45-.46.34-.94.65-1.45.91-.14.07-.27.14-.41.2-.07.03-.14.06-.21.09.12-.05.12-.05-.02,0-.27.1-.53.2-.81.28s-.55.16-.83.22c-.15.03-.3.06-.45.09-.08.01-.15.03-.23.04.12-.02.14-.02.05,0-.59.07-1.18.09-1.77.06l.33,2.46c2-.35,3.99-.71,5.99-1.06.61-.11.97-.81.9-1.37-.08-.6-.6-1.09-1.23-1.08l-3.27.03c-.65,0-1.28.57-1.25,1.25s.55,1.26,1.25,1.25h0Z"/><path class="cls-10" d="m760.38,982.68c1.61,0,1.61-2.5,0-2.5s-1.61,2.5,0,2.5h0Z"/><path class="cls-10" d="m754.31,985.16c3.9-.16,7.78,1.17,10.7,3.77,1.2,1.07,2.97-.7,1.77-1.77-3.41-3.03-7.91-4.69-12.47-4.5-1.6.07-1.61,2.57,0,2.5h0Z"/><path class="cls-5" d="m540.39,948.81c-5.1,7.55-7.68,19.52-2.69,25.76,2.35,2.94,4.31,2.02,9.12,4.93,5.57,3.38,8.53,8.01,17.04,25.32,8.82,17.93,7.96,17.67,9.75,19.39,12.33,11.83,34.3,6.23,36.94,5.52,9.6-2.58,26.24-10.25,28.09-22.46,1.02-6.73-2.63-13.67-1.12-14.33,1.31-.57,3.28,4.96,8.65,7.14,6.14,2.5,14.7-.2,15.28-3.46.92-5.12-18.22-9.14-18.06-17.22.11-5.68,9.62-6.72,10.89-14.32,1.06-6.39-4.17-14.48-9.71-15.22-7.14-.96-9.89,10.92-18.03,10.96-7.41.04-9.04-9.8-20.89-18.05-11.09-7.72-22.97-8.37-27.29-8.55-4-.17-27.32-1.16-37.97,14.59Z"/><path class="cls-11" d="m563.49,1005.94c18.31,5.52,38.69,2.15,54.09-9.23,4.01-2.96,7.66-6.34,10.86-10.18.86-1.04,1.02-2.52,0-3.54-.89-.89-2.67-1.04-3.54,0-10.94,13.13-27.27,20.82-44.4,20.58-5.33-.08-10.58-.92-15.69-2.46-3.09-.93-4.41,3.89-1.33,4.82h0Z"/><path class="cls-11" d="m590.23,939.87c.84,10.73,1.79,22,7.57,31.4,2.47,4.02,5.72,7.57,9.68,10.17,4.47,2.92,9.57,3.89,14.7,4.98,4.38.93,10.57,2.4,12.51,7.06.52,1.25,1.66,2.14,3.08,1.75,1.18-.32,2.27-1.82,1.75-3.08-1.95-4.68-6.01-7.47-10.67-9.13-4.96-1.77-10.39-1.93-15.27-3.97-8.51-3.55-13.51-12.14-15.76-20.69-1.59-6.04-2.08-12.27-2.57-18.48-.11-1.35-1.07-2.5-2.5-2.5-1.27,0-2.61,1.15-2.5,2.5h0Z"/><ellipse class="cls-5" cx="554.02" cy="920.98" rx="18.19" ry="19.96" transform="translate(-214.32 169.45) rotate(-14.6)"/><path class="cls-11" d="m535.78,920.89c14.68.93,29.46-2.14,42.59-8.77.66-.33.87-1.48.25-1.96-2.4-1.89-5.9-1.81-8,.53-1.07,1.19.69,2.97,1.77,1.77s3.1-1.61,4.47-.53l.25-1.96c-12.74,6.44-27.08,9.34-41.32,8.43-1.61-.1-1.6,2.4,0,2.5h0Z"/><path class="cls-11" d="m624.39,985.35c2.93.35,5.64-1.22,7.41-3.47,2.01-2.56,2.64-5.75,2.34-8.95-.17-1.85-.59-3.66-1.11-5.44-.47-1.6-.9-3.35-1.69-4.83-.69-1.28-1.83-2.26-3.3-2.41-1.29-.13-2.52.39-3.16,1.54-.28.5-.19,1.1.2,1.51,4.72,5.14,5.95,13.12,2.93,19.43-.69,1.44,1.46,2.71,2.16,1.26,3.53-7.36,2.21-16.44-3.32-22.46l.2,1.51c.4-.71,1.39-.18,1.78.28.73.87.99,2.16,1.32,3.21.82,2.6,1.6,5.27,1.59,8.02-.03,4.01-2.72,8.83-7.32,8.28-1.59-.19-1.58,2.31,0,2.5h0Z"/><path class="cls-11" d="m625.78,962.2c1.18,1.15,2.36,2.31,3.54,3.46l1.22-2.09c-3.83-.83-7.31-3.06-9.56-6.29-.38-.55-1.1-.81-1.71-.45-.55.32-.84,1.15-.45,1.71,2.61,3.75,6.57,6.48,11.05,7.44,1.18.25,2.15-1.18,1.22-2.09-1.18-1.15-2.36-2.31-3.54-3.46s-2.92.64-1.77,1.77h0Z"/><path class="cls-11" d="m629.68,983.68c2.25-.05,4.35.96,5.93,2.63s2.42,3.8,2.24,6.09c-.05.67.61,1.25,1.25,1.25.72,0,1.2-.57,1.25-1.25.45-5.85-4.83-11.34-10.67-11.22-1.61.03-1.61,2.53,0,2.5h0Z"/><path class="cls-11" d="m639.1,990.44c-1.25-3.42-3.57-6.32-6.66-8.24l-1.26,2.16c3.87,2.25,6.74,5.97,7.93,10.28.43,1.55,2.84.89,2.41-.66-1.37-4.92-4.67-9.21-9.08-11.77-1.4-.81-2.63,1.31-1.26,2.16,2.52,1.56,4.5,3.95,5.51,6.74.23.63.85,1.06,1.54.87.61-.17,1.11-.9.87-1.54h0Z"/><path class="cls-11" d="m632.43,974.86c5.77-.77,11.95-1.61,16.62-5.42,3.9-3.19,6.44-8.77,4.53-13.71-.57-1.49-2.99-.84-2.41.66,1.63,4.23-.69,8.84-4.11,11.44-4.13,3.15-9.64,3.86-14.63,4.52-.67.09-1.24.51-1.25,1.25,0,.61.58,1.34,1.25,1.25h0Z"/><path class="cls-11" d="m632.13,982.98c7.42-3.3,14.16-8.03,19.82-13.86,1.12-1.15-.64-2.92-1.77-1.77-5.52,5.69-12.07,10.24-19.31,13.47-1.47.65-.2,2.81,1.26,2.16h0Z"/><path class="cls-11" d="m636.48,979.44c1.44-.92,2.89-1.85,4.33-2.77.57-.36.8-1.11.45-1.71-.37-.64-1.09-.72-1.71-.45-2.04.88-4.07,1.77-6.11,2.65l.96-.13c.35.13-.34-.18,0,0-.06-.04-.23-.28-.07-.05-.02-.04-.18-.35-.12-.21s-.05-.21-.06-.25c.07.27,0-.02,0-.1,0-.06.04-.51,0-.22.03-.22.09-.45.18-.66-.09.24.1-.17.13-.22.02-.03.23-.29.07-.12.09-.1.18-.19.28-.28.07-.06.06-.05-.03.03.09-.06.19-.12.29-.17.56-.31,1.22-.4,1.85-.43,2.8-.13,6.28.71,8.31-1.84.42-.53.52-1.25,0-1.77-.44-.44-1.34-.53-1.77,0-.46.58-.89.82-1.58,1s-1.33.2-2.11.19c-1.87-.04-3.75-.28-5.51.49-1.49.64-2.4,1.96-2.57,3.56-.15,1.41.65,3.26,2.23,3.46.63.08,1.34-.38,1.91-.63s1.11-.48,1.67-.72c1.11-.48,2.22-.96,3.33-1.44l-1.26-2.16c-1.44.92-2.89,1.85-4.33,2.77-.57.36-.8,1.11-.45,1.71.33.57,1.14.81,1.71.45h0Z"/><path class="cls-11" d="m651.6,968.07c1.61,0,1.61-2.5,0-2.5s-1.61,2.5,0,2.5h0Z"/><path class="cls-11" d="m634.76,976.24c2.41-.79,4.81-1.58,7.22-2.37.62-.2,1.09-.87.87-1.54-.2-.62-.87-1.09-1.54-.87l-7.22,2.37c-.62.2-1.09.87-.87,1.54.2.62.87,1.09,1.54.87h0Z"/><path class="cls-11" d="m634.63,977.77c2.69-1.05,5.37-2.1,8.06-3.15.61-.24,1.1-.85.87-1.54-.19-.59-.89-1.13-1.54-.87-2.69,1.05-5.37,2.1-8.06,3.15-.61.24-1.1.85-.87,1.54.19.59.89,1.13,1.54.87h0Z"/><path class="cls-11" d="m635.12,984.39c2.69-1.31,5.98-1.31,8.67-.02.61.29,1.35.17,1.71-.45.32-.55.16-1.42-.45-1.71-3.55-1.71-7.65-1.7-11.19.02-.61.3-.77,1.16-.45,1.71.36.62,1.1.74,1.71.45h0Z"/><path class="cls-11" d="m638.22,981.52l3.16-.85-.96-2.28c-1.84.85-3.68,1.69-5.53,2.54-.56.26-.73,1.04-.51,1.56.25.59.86.85,1.47.72,2.55-.53,4.93-1.99,6.56-4.02.21-.27.37-.53.37-.88,0-.31-.14-.67-.37-.88-.45-.42-1.33-.55-1.77,0-.36.46-.76.88-1.2,1.27-.11.09-.21.19-.32.28-.03.02-.24.19-.1.08.13-.1-.04.03-.06.05-.24.18-.49.35-.74.5-.24.15-.49.29-.74.42-.13.06-.25.13-.38.19-.05.03-.16.09-.22.1.07,0,.19-.08.04-.02-.56.22-1.13.39-1.72.52l.96,2.28c1.84-.85,3.68-1.69,5.53-2.54.56-.26.73-1.04.51-1.56-.24-.57-.87-.89-1.47-.72l-3.16.85c-.63.17-1.08.9-.87,1.54s.86,1.06,1.54.87h0Z"/><path class="cls-11" d="m640.71,982.4c1.61,0,1.61-2.5,0-2.5s-1.61,2.5,0,2.5h0Z"/><path class="cls-11" d="m635.8,986.28c3.73-1.14,7.81-.82,11.29.95,1.43.73,2.7-1.43,1.26-2.16-4.07-2.07-8.84-2.54-13.22-1.2-1.53.47-.88,2.88.66,2.41h0Z"/><path class="cls-8" d="m641.01,1001.42c1.72,1.09,4.44.88,6.37.9,6,.06,12.01-.35,17.99-.73,1.6-.1,1.61-2.6,0-2.5-5.85.37-11.72.76-17.59.73-1.36,0-2.74-.03-4.09-.19-.31-.04.19.03-.08-.01-.12-.02-.25-.04-.37-.06-.16-.03-.31-.07-.47-.1-.15-.03-.29-.09-.43-.14.42.16.05.02-.06-.05-1.36-.86-2.62,1.3-1.26,2.16h0Z"/><path class="cls-9" d="m756.67,1002.26c4.33-.55,9.85.1,15.07.02,6.73-.11,2.61-.54,7.94.11l-6.47,11.18-16.55-11.31Z"/><path class="cls-8" d="m756.33,1001.71c11.37,1.1,22.82,1.24,34.21.39,1.59-.12,1.61-2.62,0-2.5-11.4.84-22.84.71-34.21-.39-1.6-.16-1.59,2.35,0,2.5h0Z"/><path class="cls-8" d="m757.33,1001.9c8.37.55,16.75.74,25.14.58,1.61-.03,1.61-2.53,0-2.5-8.38.16-16.77-.04-25.14-.58-1.61-.1-1.6,2.4,0,2.5h0Z"/><path class="cls-8" d="m757.07,1001.63c10.27-.31,20.56-.22,30.82.25,1.61.07,1.6-2.43,0-2.5-10.27-.48-20.55-.56-30.82-.25-1.61.05-1.61,2.55,0,2.5h0Z"/><path class="cls-1" d="m1041.6,1007.7c.24,12.76.3,10.03,1.25,12.63,5.74,15.67,38.65,26.53,50.66,16.17"/><path class="cls-2" d="m.44,1092.49c16.87,5.21,37.86,10.04,62.31,12.13,66.96,5.71,120.28-12.48,146.62-23.49,4.5,2.59,9.68,4.97,15.58,6.82,32.7,10.27,64.88-2.7,74.23-6.82,1.81,2.14,5.3,5.53,11,7.58,14.26,5.12,28.43-3.25,29.32-3.79,4.95,4.97,9.99,7.31,13.75,8.5,18.23,5.79,43.38-3.58,62.31-23.66,5.26,2.42,12.02,4.81,20.16,6.06,28.46,4.39,51.57-8.45,57.73-12.13,5.03,4.47,11.93,9.3,21.08,12.88,34.03,13.32,69.7-2.1,75.14-4.55,3.77,1.95,7.47,3.43,11,4.55,31.85,10.12,64.58-4.04,75.14-9.09,5.42,1.54,11.23,2.84,17.41,3.79,43.74,6.71,81.56-8.09,100.8-17.43,3.5,1.93,9.86,5.24,18.33,8.34,29.74,10.89,46.78,5.15,120.96,4.55,15.82-.13,28.57.02,46.74-3.03,15.38-2.59,27.63-6.29,35.74-9.09,6.55,1.58,13.27,3.07,20.16,4.45,45.6,9.16,88.43,11.67,126.46,10.71"/></g></svg>