<?xml version="1.0" encoding="utf-8"?>
<!-- Generator: Adobe Illustrator 24.0.2, SVG Export Plug-In . SVG Version: 6.00 Build 0)  -->
<svg version="1.1" id="Layer_1" xmlns="http://www.w3.org/2000/svg" xmlns:xlink="http://www.w3.org/1999/xlink" x="0px" y="0px"
	 viewBox="0 0 300 150" style="enable-background:new 0 0 300 150;" xml:space="preserve">
<style type="text/css">
	.st0{fill:#4285F4;}
	.st1{fill:#EA4335;}
	.st2{fill:#FBBC05;}
	.st3{fill:#34A853;}
</style>
<path class="st0" d="M73.8,60.6h-35v10.4h24.8c-1.2,14.6-13.3,20.8-24.8,20.8c-14.6,0-27.4-11.5-27.4-27.7
	c0-15.7,12.2-27.8,27.4-27.8c11.8,0,18.7,7.5,18.7,7.5l7.3-7.5c0,0-9.3-10.4-26.4-10.4C16.8,25.8,0,44.1,0,63.9
	c0,19.4,15.8,38.3,39,38.3c20.4,0,35.4-14,35.4-34.7C74.4,63.1,73.8,60.6,73.8,60.6L73.8,60.6z"/>
<path class="st1" d="M102.4,53c-14.4,0-24.7,11.2-24.7,24.3c0,13.3,10,24.7,24.8,24.7c13.4,0,24.4-10.3,24.4-24.4
	C127,61.4,114.2,53,102.4,53L102.4,53z M102.6,62.7c7.1,0,13.8,5.7,13.8,14.9c0,9-6.7,14.9-13.8,14.9c-7.8,0-14-6.3-14-15
	C88.5,69,94.6,62.7,102.6,62.7L102.6,62.7z"/>
<path class="st2" d="M156.1,53c-14.4,0-24.7,11.2-24.7,24.3c0,13.3,10,24.7,24.8,24.7c13.4,0,24.4-10.3,24.4-24.4
	C180.7,61.4,167.9,53,156.1,53L156.1,53z M156.2,62.7c7.1,0,13.8,5.7,13.8,14.9c0,9-6.7,14.9-13.8,14.9c-7.8,0-14-6.3-14-15
	C142.2,69,148.3,62.7,156.2,62.7L156.2,62.7z"/>
<path class="st0" d="M208.7,53.1c-13.2,0-23.5,11.5-23.5,24.5c0,14.8,12,24.6,23.3,24.6c7,0,10.7-2.8,13.5-6v4.8
	c0,8.5-5.1,13.5-12.9,13.5c-7.5,0-11.3-5.6-12.6-8.7l-9.4,3.9c3.3,7.1,10.1,14.4,22.1,14.4c13.1,0,23.1-8.3,23.1-25.6V54.5h-10.3
	v4.2C218.7,55.3,214.4,53.1,208.7,53.1L208.7,53.1z M209.6,62.7c6.5,0,13.1,5.5,13.1,14.9c0,9.6-6.6,14.9-13.2,14.9
	c-7,0-13.6-5.7-13.6-14.8C195.9,68.3,202.7,62.7,209.6,62.7L209.6,62.7z"/>
<path class="st1" d="M277.9,53c-12.4,0-22.9,9.9-22.9,24.5c0,15.4,11.6,24.6,24.1,24.6c10.4,0,16.7-5.7,20.5-10.8l-8.5-5.6
	c-2.2,3.4-5.9,6.8-12,6.8c-6.9,0-10.1-3.8-12-7.4L300,71.4l-1.7-4C295.1,59.5,287.7,53,277.9,53L277.9,53z M278.3,62.4
	c4.5,0,7.7,2.4,9.1,5.2l-22,9.2C264.5,69.7,271.2,62.4,278.3,62.4L278.3,62.4z"/>
<path class="st3" d="M239.3,100.7h10.8V28.4h-10.8V100.7z"/>
</svg>
